<?xml version="1.0" standalone="no"?>
<!DOCTYPE svg PUBLIC "-//W3C//DTD SVG 20010904//EN"
 "http://www.w3.org/TR/2001/REC-SVG-20010904/DTD/svg10.dtd">
<svg version="1.0" xmlns="http://www.w3.org/2000/svg"
 width="1264.000000pt" height="1264.000000pt" viewBox="0 0 1264.000000 1264.000000"
 preserveAspectRatio="xMidYMid meet">
<metadata>
Created by potrace 1.11, written by Peter Selinger 2001-2013
</metadata>
<g transform="translate(0.000000,1264.000000) scale(0.100000,-0.100000)"
fill="#000000" stroke="none">
<path d="M6431 12618 c-5 -13 -25 -66 -45 -118 -20 -52 -41 -104 -46 -115 -5
-11 -25 -63 -45 -115 -20 -52 -43 -109 -51 -127 -8 -17 -14 -33 -14 -36 0 -2
-8 -22 -17 -43 -9 -22 -16 -43 -15 -48 2 -4 -1 -13 -6 -20 -12 -15 -47 -109
-44 -118 1 -5 -2 -8 -8 -8 -5 0 -10 -8 -10 -18 0 -10 -3 -22 -7 -26 -5 -4 -8
-11 -8 -14 -1 -8 -51 -143 -71 -187 -21 -49 -93 -239 -96 -255 -2 -8 -9 -21
-15 -28 -7 -7 -13 -20 -13 -29 0 -8 -6 -29 -14 -46 -17 -40 -29 -70 -30 -79
-1 -3 -4 -10 -8 -14 -5 -4 -8 -16 -8 -26 0 -10 -4 -18 -10 -18 -5 0 -9 -3 -8
-7 3 -11 -22 -85 -33 -99 -5 -6 -6 -14 -2 -17 3 -4 2 -7 -4 -7 -5 0 -10 -6
-10 -12 0 -7 -30 -89 -67 -183 -37 -93 -79 -199 -93 -235 -13 -36 -34 -90 -46
-120 -12 -30 -22 -58 -23 -62 -1 -5 -3 -11 -4 -15 -1 -5 -2 -11 -1 -15 0 -5
-3 -8 -9 -8 -5 0 -10 -4 -10 -10 0 -5 -36 -103 -81 -217 -44 -115 -96 -248
-115 -298 -20 -49 -40 -99 -45 -110 -6 -12 -11 -27 -13 -35 -3 -14 -16 -50
-33 -90 -3 -8 -7 -17 -8 -20 -1 -3 -8 -21 -16 -40 -7 -19 -12 -38 -11 -42 1
-5 -2 -8 -8 -8 -6 0 -9 -3 -8 -7 2 -10 13 20 -118 -313 -31 -80 -57 -151 -58
-158 -1 -7 -8 -18 -14 -24 -7 -7 -12 -20 -12 -30 0 -10 -4 -26 -10 -36 -5 -9
-37 -89 -70 -177 -33 -88 -67 -173 -75 -188 -8 -16 -15 -32 -15 -37 0 -9 -142
-376 -165 -425 -7 -16 -11 -33 -9 -37 3 -4 1 -8 -4 -8 -6 0 -13 -7 -16 -16 -3
-8 -2 -12 3 -9 5 3 3 -7 -4 -22 -12 -24 -35 -77 -40 -93 -1 -3 -8 -18 -15 -35
-7 -16 -15 -39 -17 -50 -2 -11 -8 -24 -13 -29 -6 -6 -10 -18 -10 -28 0 -10 -4
-18 -10 -18 -5 0 -7 -6 -4 -14 3 -8 1 -17 -5 -21 -6 -3 -11 -12 -11 -18 0 -10
219 -13 1000 -12 550 0 1000 -2 1000 -5 0 -7 -38 -109 -50 -135 -16 -36 -201
-509 -205 -527 -2 -9 -9 -26 -15 -37 -6 -12 -7 -21 -3 -21 4 0 2 -4 -5 -8 -7
-5 -14 -18 -17 -30 -2 -12 -7 -28 -12 -35 -4 -6 -8 -15 -9 -19 -1 -5 -2 -9 -3
-10 -2 -2 -5 -14 -7 -28 -2 -13 -9 -27 -14 -30 -5 -3 -11 -15 -13 -25 -2 -11
-8 -29 -12 -40 -5 -11 -17 -42 -27 -70 -10 -27 -22 -59 -27 -70 -21 -47 -36
-91 -33 -97 1 -5 -3 -8 -8 -8 -6 0 -10 -7 -10 -15 0 -8 -6 -29 -14 -47 -29
-69 -77 -190 -92 -236 -9 -26 -20 -51 -25 -56 -5 -6 -9 -16 -9 -22 0 -7 -5
-25 -12 -41 -6 -15 -11 -31 -10 -35 1 -5 -2 -8 -6 -8 -4 0 -14 -21 -21 -47 -8
-27 -22 -66 -32 -88 -10 -22 -34 -83 -54 -135 -66 -170 -126 -325 -135 -345
-4 -11 -22 -58 -40 -105 -17 -47 -36 -96 -42 -110 -5 -14 -8 -25 -6 -26 1 0
-2 -7 -8 -15 -6 -8 -17 -32 -24 -54 -7 -22 -18 -53 -26 -70 -7 -16 -33 -82
-58 -145 -24 -63 -70 -180 -101 -260 -31 -80 -58 -149 -60 -155 -1 -5 -8 -26
-15 -45 -8 -19 -12 -37 -11 -39 1 -2 -2 -7 -8 -11 -6 -3 -13 -16 -16 -28 -2
-12 -7 -28 -12 -35 -4 -6 -8 -16 -9 -22 -1 -5 -23 -64 -49 -130 -26 -66 -62
-160 -81 -210 -19 -49 -41 -105 -49 -123 -8 -18 -15 -39 -15 -47 0 -8 -5 -15
-12 -15 -6 0 -9 -3 -6 -6 4 -3 -6 -36 -22 -74 -16 -38 -26 -71 -22 -74 3 -3 0
-6 -6 -6 -7 0 -12 -5 -12 -12 0 -6 -11 -39 -24 -72 -27 -71 -37 -99 -38 -106
0 -3 -6 -16 -13 -30 -8 -14 -30 -70 -51 -125 -20 -55 -43 -113 -50 -130 -7
-16 -31 -79 -55 -140 -23 -60 -57 -147 -75 -193 -19 -45 -34 -89 -34 -97 0 -8
-5 -15 -10 -15 -6 0 -9 -3 -8 -8 3 -14 -25 -92 -34 -92 -5 0 -7 -4 -4 -8 3 -5
-1 -19 -8 -33 -7 -13 -13 -28 -14 -34 -1 -9 -17 -49 -48 -122 -8 -17 -14 -37
-14 -45 0 -8 -4 -18 -8 -24 -5 -5 -24 -52 -44 -104 -20 -52 -39 -104 -44 -115
-4 -11 -6 -23 -6 -27 1 -5 -2 -8 -8 -8 -6 0 -9 -3 -8 -7 1 -5 -4 -21 -10 -36
-7 -16 -12 -33 -12 -38 0 -5 -4 -17 -10 -27 -8 -14 -131 -326 -135 -342 -1 -3
-5 -14 -10 -25 -4 -11 -17 -42 -27 -70 -10 -27 -22 -59 -27 -70 -35 -82 -71
-177 -71 -190 0 -8 -5 -15 -12 -15 -6 0 -8 -3 -5 -7 4 -3 2 -12 -4 -20 -6 -7
-8 -13 -4 -13 4 0 2 -6 -4 -14 -7 -8 -14 -23 -16 -35 -2 -11 -10 -35 -18 -53
-15 -34 -29 -69 -31 -78 -5 -20 -41 -107 -49 -117 -5 -7 -6 -13 -3 -13 4 0 0
-12 -8 -27 -15 -29 -111 -273 -111 -285 0 -3 -3 -10 -7 -14 -5 -4 -8 -16 -8
-26 0 -10 -5 -18 -12 -18 -6 0 -9 -2 -6 -5 3 -3 -19 -68 -49 -143 -30 -75 -56
-141 -57 -147 -4 -12 -10 -28 -49 -123 -16 -40 -27 -75 -24 -78 2 -3 29 28 58
68 30 40 64 84 76 98 13 14 23 30 23 37 0 7 4 13 8 13 5 0 26 24 46 54 21 30
47 66 59 79 12 13 38 46 57 73 19 27 40 56 47 64 7 8 60 78 117 155 58 77 114
150 125 162 12 12 21 27 21 33 0 5 5 10 10 10 6 0 10 5 10 10 0 6 8 18 18 28
35 38 50 60 45 66 -4 3 -2 6 3 6 6 0 32 30 59 68 27 37 60 81 74 98 15 17 35
44 46 59 19 27 65 88 83 110 4 6 28 37 52 70 25 33 47 62 50 65 3 3 17 21 30
40 13 19 27 37 30 40 3 3 69 88 145 190 218 289 259 345 265 350 3 3 23 30 45
60 22 30 42 57 45 60 7 6 117 151 145 190 56 80 200 267 213 277 9 7 12 13 8
13 -4 0 -1 6 6 13 7 8 33 41 58 75 24 34 48 62 52 62 5 0 8 4 8 10 0 9 6 18
53 72 9 12 17 24 17 27 0 3 14 21 30 40 17 18 30 36 30 40 0 3 12 20 28 36 15
17 32 38 37 47 14 24 188 252 196 258 3 3 17 21 30 40 39 57 83 115 92 118 4
2 7 10 7 18 0 8 4 14 8 14 5 0 24 21 42 48 19 26 39 52 45 58 5 6 17 22 25 34
18 26 122 163 130 170 3 3 10 12 15 21 8 13 75 104 107 144 57 73 109 140 183
240 50 66 94 124 98 130 4 5 35 46 68 90 33 44 68 89 77 100 9 11 35 45 57 75
22 30 44 60 50 67 21 25 31 39 55 73 13 19 29 40 35 46 5 7 19 24 30 40 11 15
25 32 30 38 6 6 43 56 84 111 41 55 77 102 80 105 4 3 17 22 31 42 14 21 28
38 33 38 4 0 7 4 7 10 0 5 7 18 15 27 16 20 282 369 312 410 10 14 32 42 48
62 17 21 39 50 50 65 59 82 128 173 143 191 10 11 29 36 42 55 13 19 27 37 30
40 3 3 19 23 36 45 16 22 35 46 42 53 6 7 12 17 12 21 0 4 18 27 40 51 22 25
40 48 40 52 0 7 11 21 55 72 6 7 15 19 20 28 6 9 66 90 134 180 214 280 342
449 420 553 41 55 79 105 83 110 11 13 103 134 122 160 37 50 117 153 140 181
14 18 26 34 26 38 0 5 12 20 55 70 6 7 15 19 20 28 6 10 44 61 85 115 194 251
350 461 350 469 0 5 -485 8 -1120 7 l-1120 -1 24 41 c13 23 41 74 62 112 21
39 48 88 61 110 12 22 26 47 30 55 12 25 122 224 133 240 6 8 14 24 19 35 5
11 31 60 59 108 28 49 54 97 57 108 4 10 10 19 15 19 5 0 11 14 15 30 4 17 10
30 15 30 4 0 10 8 13 18 3 9 22 44 41 77 19 33 43 76 52 95 10 19 21 37 24 40
3 3 17 28 32 55 14 28 42 79 62 115 20 36 42 77 49 93 6 15 15 27 19 27 4 0 8
4 8 10 0 5 41 83 91 172 50 90 110 197 132 238 22 41 49 89 58 105 10 17 28
50 40 75 13 25 25 47 28 50 3 3 14 21 25 40 10 19 39 73 64 120 24 47 52 96
62 110 9 14 24 41 34 60 9 19 21 42 26 50 10 14 233 416 272 490 10 19 29 53
41 75 13 22 43 76 67 120 24 44 52 94 62 110 10 17 21 37 25 45 3 8 35 65 70
127 35 62 63 117 63 123 0 5 5 10 10 10 6 0 10 9 10 19 0 11 4 21 9 23 4 2 25
36 46 76 20 39 41 75 46 78 5 3 7 10 4 15 -4 5 -2 9 3 9 5 0 12 8 16 18 3 9
18 37 32 62 14 25 39 70 56 100 16 30 40 73 52 95 25 44 84 151 112 205 11 19
21 37 24 40 3 3 11 17 17 33 l13 27 -1765 0 -1765 0 -9 -22z"/>
<path d="M4730 10772 c-25 -8 -52 -17 -60 -20 -8 -3 -17 -6 -20 -7 -3 -1 -18
-7 -35 -14 -16 -6 -61 -24 -100 -38 -38 -14 -76 -30 -82 -36 -7 -5 -13 -7 -13
-3 0 3 -17 -3 -37 -14 -21 -11 -41 -20 -46 -20 -8 0 -354 -169 -387 -189 -8
-5 -78 -47 -155 -92 -77 -45 -141 -86 -143 -91 -2 -4 -8 -8 -13 -8 -8 0 -196
-126 -209 -140 -16 -17 -90 -70 -99 -70 -5 0 -14 -6 -18 -13 -4 -6 -50 -45
-100 -86 -51 -41 -93 -78 -93 -83 0 -4 -5 -8 -10 -8 -13 0 -82 -64 -244 -226
-239 -238 -383 -410 -568 -679 -69 -100 -208 -321 -208 -330 0 -2 -14 -28 -31
-57 -29 -48 -152 -286 -155 -298 -1 -6 -36 -85 -64 -145 -51 -111 -151 -387
-196 -545 -14 -47 -27 -92 -29 -100 -2 -8 -9 -35 -16 -60 -6 -25 -12 -52 -15
-60 -19 -77 -25 -100 -31 -130 -3 -19 -6 -43 -7 -52 0 -10 -5 -18 -10 -18 -5
0 -7 -2 -4 -5 3 -4 2 -23 -3 -43 -4 -20 -11 -59 -15 -87 -3 -27 -8 -59 -11
-70 -7 -34 -18 -110 -29 -205 -2 -25 -7 -63 -9 -85 -6 -49 -17 -241 -19 -315
0 -30 -5 -58 -11 -62 -6 -5 -5 -8 2 -8 9 0 10 -7 3 -25 -5 -14 -6 -25 -2 -25
7 0 8 -45 2 -60 -1 -3 -1 -9 0 -15 7 -34 6 -55 -4 -55 -7 0 -7 -3 -1 -8 6 -4
11 -50 12 -102 1 -91 5 -157 18 -300 8 -91 21 -193 30 -240 2 -14 7 -47 11
-75 3 -27 8 -59 11 -70 2 -11 7 -38 10 -60 3 -22 9 -45 14 -51 5 -6 7 -18 3
-27 -3 -8 0 -18 5 -22 6 -3 9 -11 6 -16 -4 -5 -3 -15 1 -21 5 -7 10 -31 12
-53 2 -22 8 -42 13 -43 5 -2 7 -7 4 -12 -4 -6 8 -56 57 -225 11 -39 55 -176
66 -205 3 -8 6 -17 7 -20 1 -3 4 -12 8 -20 3 -8 12 -35 20 -60 20 -58 49 -136
69 -180 8 -19 28 -64 43 -100 42 -96 140 -297 174 -356 17 -29 27 -54 24 -58
-4 -3 -2 -6 4 -6 5 0 20 -23 33 -50 13 -28 27 -50 32 -50 4 0 8 -4 8 -10 0 -5
38 -69 84 -142 73 -114 111 -170 233 -337 24 -33 54 -69 79 -97 12 -12 32 -37
45 -56 13 -18 31 -40 41 -49 10 -9 18 -19 18 -21 0 -3 23 -29 50 -58 27 -29
50 -57 50 -61 0 -5 7 -9 15 -9 8 0 15 -5 15 -11 0 -12 258 -269 331 -329 23
-19 53 -45 68 -58 72 -64 171 -142 179 -142 6 0 12 -4 14 -8 4 -12 118 -96
122 -91 2 2 25 32 50 66 l45 62 -42 35 c-23 20 -47 40 -54 46 -7 5 -17 10 -23
10 -5 0 -10 3 -10 8 0 4 -17 18 -37 32 -20 14 -41 30 -47 35 -6 6 -40 35 -76
65 -113 96 -151 131 -295 276 -157 159 -191 195 -254 274 -25 30 -49 60 -55
65 -6 6 -24 28 -41 50 -16 22 -37 48 -46 58 -9 10 -34 43 -55 75 -21 31 -41
59 -45 62 -3 3 -26 34 -50 70 -24 36 -47 67 -51 68 -5 2 -8 9 -8 15 0 7 -16
37 -37 67 -65 98 -81 124 -128 210 -59 108 -225 448 -225 461 0 5 -4 17 -10
27 -20 36 -90 215 -90 231 0 9 -4 21 -10 27 -5 5 -11 21 -14 34 -2 14 -5 26
-7 28 -1 1 -3 7 -4 12 -1 6 -4 13 -5 18 -1 4 -2 10 -1 15 0 4 -4 7 -11 7 -6 0
-9 3 -5 6 3 3 -2 27 -12 53 -10 25 -16 51 -14 58 2 6 -1 14 -6 18 -6 3 -11 17
-11 30 0 13 -5 27 -10 30 -6 4 -8 10 -5 15 3 5 -1 25 -9 45 -8 19 -13 35 -11
35 2 0 -1 15 -6 33 -9 31 -35 146 -45 197 -2 14 -9 48 -15 76 -15 77 -18 96
-23 139 -3 22 -7 49 -9 60 -8 37 -17 109 -22 175 -3 36 -7 88 -11 115 -12 102
-18 506 -9 660 5 99 19 240 30 315 2 14 6 48 10 75 3 28 10 75 15 105 5 30 12
75 15 100 4 24 9 48 12 53 3 4 7 23 9 40 3 18 7 43 11 57 3 14 7 30 8 35 2 6
10 46 20 90 10 44 20 85 24 90 3 6 6 16 8 24 5 36 57 207 65 218 5 7 7 17 3
23 -3 5 -1 10 4 10 6 0 10 3 10 8 -1 4 0 10 1 15 1 4 4 12 5 17 1 6 3 11 5 13
1 1 3 10 5 19 3 14 40 113 64 173 30 72 94 221 119 275 16 36 29 69 30 74 0 5
4 12 9 15 10 6 55 97 53 106 0 3 6 13 15 21 8 9 15 22 15 30 0 8 4 14 8 14 4
0 14 16 21 35 7 19 16 35 21 35 4 0 13 12 19 28 30 78 269 427 428 623 144
177 427 463 601 604 13 11 32 27 41 35 9 8 40 33 68 55 28 22 66 51 84 65 17
14 71 52 118 84 47 33 88 63 89 68 2 4 10 8 17 8 8 0 20 6 27 13 17 16 96 67
103 67 4 0 25 13 48 28 66 44 249 145 264 145 7 0 13 4 13 9 0 4 6 8 13 8 7 0
19 6 26 13 6 6 15 12 19 13 4 0 43 17 87 38 44 21 130 58 190 83 61 25 124 51
140 58 17 7 68 25 115 40 47 16 87 29 89 31 4 4 -41 154 -48 158 -3 2 -26 -3
-51 -12z"/>
<path d="M10720 7795 c-19 -7 -56 -21 -83 -31 -38 -13 -45 -19 -36 -30 6 -8 9
-14 5 -14 -3 0 0 -16 8 -35 8 -19 13 -35 10 -35 -3 0 0 -10 7 -21 21 -40 119
-400 135 -499 8 -45 12 -65 14 -65 1 0 3 -11 6 -25 2 -14 6 -38 9 -55 6 -34
12 -71 19 -130 2 -22 7 -51 11 -65 7 -30 16 -117 18 -182 1 -27 4 -48 7 -48
13 0 17 -616 6 -755 -5 -55 -9 -114 -10 -130 -1 -17 -6 -36 -10 -44 -7 -10 -5
-12 5 -6 11 7 12 6 3 -6 -6 -8 -11 -21 -11 -29 -1 -39 -20 -191 -28 -220 -3
-8 -7 -33 -10 -55 -3 -22 -9 -53 -12 -70 -4 -16 -6 -36 -4 -42 1 -7 -3 -13 -9
-13 -6 0 -9 -3 -6 -8 14 -23 -145 -599 -177 -639 -5 -7 -7 -13 -3 -13 3 0 -5
-24 -17 -52 -13 -29 -24 -56 -25 -61 -1 -4 -9 -23 -17 -43 -8 -20 -15 -38 -15
-39 0 -1 -8 -20 -17 -41 -9 -22 -16 -42 -15 -46 1 -5 -3 -8 -8 -8 -6 0 -10 -8
-10 -18 0 -10 -7 -27 -15 -38 -8 -12 -12 -24 -9 -26 2 -3 -2 -11 -11 -18 -8
-7 -15 -18 -15 -25 0 -40 -275 -524 -362 -636 -15 -20 -28 -42 -28 -48 0 -6
-4 -11 -8 -11 -4 0 -15 -12 -24 -27 -9 -16 -24 -37 -32 -48 -9 -11 -37 -47
-63 -81 -27 -33 -59 -76 -73 -94 -14 -18 -29 -38 -35 -44 -5 -6 -37 -43 -70
-81 -33 -38 -72 -83 -87 -99 -16 -16 -28 -34 -28 -39 0 -6 -3 -8 -6 -5 -3 3
-24 -15 -47 -40 -43 -46 -168 -169 -222 -217 -16 -15 -46 -41 -65 -59 -19 -18
-55 -48 -79 -67 -25 -19 -53 -41 -62 -49 -38 -33 -56 -47 -109 -87 -30 -23
-59 -46 -65 -51 -5 -4 -32 -23 -60 -42 -27 -19 -51 -37 -53 -42 -2 -4 -8 -8
-13 -8 -5 0 -48 -26 -97 -59 -246 -165 -686 -385 -912 -457 -30 -9 -59 -20
-65 -24 -5 -4 -23 -11 -40 -15 -44 -12 -45 -12 -50 -15 -3 -1 -8 -3 -12 -5 -5
-1 -16 -5 -25 -8 -44 -17 -55 -20 -83 -23 -16 -3 -32 -9 -33 -14 -2 -6 -7 -8
-11 -6 -4 3 -30 -2 -57 -10 -67 -21 -353 -85 -367 -83 -7 1 -19 0 -27 -4 -22
-8 -137 -27 -195 -32 -27 -2 -50 -5 -50 -5 0 -1 -9 -3 -20 -5 -19 -4 -45 -6
-240 -21 -178 -14 -600 -8 -740 11 -22 3 -60 7 -85 9 -25 2 -49 5 -55 6 -24 6
-41 -1 -41 -17 -1 -10 -4 -48 -7 -84 -5 -49 -3 -66 6 -66 11 0 94 -9 182 -18
148 -17 599 -23 755 -11 140 11 196 16 225 21 17 2 48 6 70 9 22 2 69 9 105
15 36 6 83 13 105 17 22 3 81 14 130 25 50 11 101 21 115 23 14 2 25 5 25 6 0
1 7 3 15 5 8 2 29 6 45 10 43 9 60 13 60 15 0 1 7 3 15 5 77 15 384 117 522
174 53 21 99 37 102 33 3 -3 6 0 6 6 0 7 9 12 19 12 11 0 21 5 23 10 2 6 13
12 26 13 12 0 22 5 22 9 0 4 5 8 11 8 15 0 345 166 381 191 14 10 29 19 33 19
4 0 18 9 32 20 14 11 29 17 34 14 5 -3 9 -1 9 5 0 6 11 13 24 17 14 3 27 12
30 20 3 8 12 14 21 14 8 0 15 5 15 10 0 6 6 10 13 10 7 0 23 9 35 20 12 11 24
20 27 20 7 0 186 125 240 168 6 4 28 21 50 37 56 42 64 48 83 65 9 9 42 36 72
60 74 61 153 132 228 207 35 35 65 63 68 63 2 0 30 28 61 62 32 33 78 83 103
109 46 49 53 57 130 149 25 30 52 61 60 70 8 9 49 61 90 115 41 55 78 102 83
103 4 2 7 9 7 16 0 7 9 21 20 31 11 10 20 24 20 31 0 7 8 18 18 23 9 6 13 11
7 11 -6 0 -6 3 1 8 14 10 74 101 74 113 0 5 5 9 10 9 6 0 10 7 10 15 0 8 5 15
10 15 6 0 10 4 10 10 0 5 20 41 45 80 25 38 42 70 37 70 -4 0 -2 4 3 8 10 7
53 80 83 142 9 19 21 38 25 41 5 3 9 10 9 15 2 24 11 44 20 44 5 0 7 4 4 9 -3
5 1 14 9 21 8 7 15 18 15 25 0 7 11 35 25 62 41 82 158 360 160 383 0 3 3 10
6 15 9 15 87 258 93 289 2 14 8 31 12 38 4 7 9 26 11 42 2 17 7 32 11 35 4 4
7 13 7 21 -1 8 1 20 4 25 3 6 7 17 8 26 1 8 12 55 23 105 12 49 28 123 35 164
8 41 16 84 18 95 3 11 7 41 11 66 4 25 9 57 11 70 2 13 6 45 9 72 3 26 8 66
11 90 33 261 38 796 10 1002 -2 17 -7 53 -9 80 -8 79 -17 148 -21 175 -3 14
-7 43 -10 65 -3 22 -8 51 -11 65 -3 14 -7 36 -10 50 -8 42 -46 224 -51 245 -3
11 -8 36 -13 55 -10 42 -14 58 -35 130 -9 30 -18 64 -20 74 -2 10 -10 35 -17
55 -7 20 -13 38 -13 41 -6 27 -30 97 -37 106 -4 6 -9 23 -10 38 -1 14 -3 26
-3 25 0 0 -16 -6 -35 -14z"/>
</g>
</svg>
